{"asset":{"version":"2.0","generator":"Blockbench 4.12.4 glTF exporter"},"scenes":[{"nodes":[15],"name":"blockbench_export"}],"scene":0,"nodes":[{"name":"bone"},{"translation":[0,1.0625,0.8125],"name":"Roof"},{"translation":[-0.9375,0,0],"name":"Window1","mesh":0},{"name":"Door","mesh":1},{"translation":[0.6875,0,0],"name":"Window2","mesh":2},{"translation":[-1.3125,0.25,0],"name":"HouseBase","mesh":3},{"translation":[0.25,1.0625,0.625],"name":"cube","mesh":4},{"rotation":[0,-1,0,6.123233995736766e-17],"translation":[-2.625,1.375,-0.1875],"name":"pyramid","mesh":5},{"translation":[-3,1.0625,0.625],"name":"cube","mesh":6},{"translation":[0,1.375,-0.125],"name":"pyramid","mesh":7},{"translation":[1.3125,-0.25,0],"name":"HouseBase","children":[2,3,4,5,6,7,8,9]},{"rotation":[0.3431146201676016,0.00034352663649702764,-0.005877983857260434,0.9392750868209303],"translation":[0,-0.1875,-1.75],"name":"cube","mesh":8},{"rotation":[-0.3409133397634725,0.004041451864336396,-0.0042819822050597905,0.9400762873653068],"translation":[0,0.0625,0],"name":"Roof","mesh":9},{"rotation":[-0.00007659186403836134,0.000710767636248833,0.004304347914374496,0.9999904807207346],"translation":[0,1.0625,0.8125],"name":"Roof","children":[11,12]},{"name":"House","children":[0,1,10,13]},{"children":[14]}],"bufferViews":[{"buffer":0,"byteOffset":0,"byteLength":288,"target":34962,"byteStride":12},{"buffer":0,"byteOffset":288,"byteLength":288,"target":34962,"byteStride":12},{"buffer":0,"byteOffset":576,"byteLength":192,"target":34962,"byteStride":8},{"buffer":0,"byteOffset":768,"byteLength":72,"target":34963},{"buffer":0,"byteOffset":840,"byteLength":288,"target":34962,"byteStride":12},{"buffer":0,"byteOffset":1128,"byteLength":288,"target":34962,"byteStride":12},{"buffer":0,"byteOffset":1416,"byteLength":192,"target":34962,"byteStride":8},{"buffer":0,"byteOffset":1608,"byteLength":72,"target":34963},{"buffer":0,"byteOffset":1680,"byteLength":288,"target":34962,"byteStride":12},{"buffer":0,"byteOffset":1968,"byteLength":288,"target":34962,"byteStride":12},{"buffer":0,"byteOffset":2256,"byteLength":192,"target":34962,"byteStride":8},{"buffer":0,"byteOffset":2448,"byteLength":72,"target":34963},{"buffer":0,"byteOffset":2520,"byteLength":288,"target":34962,"byteStride":12},{"buffer":0,"byteOffset":2808,"byteLength":288,"target":34962,"byteStride":12},{"buffer":0,"byteOffset":3096,"byteLength":192,"target":34962,"byteStride":8},{"buffer":0,"byteOffset":3288,"byteLength":72,"target":34963},{"buffer":0,"byteOffset":3360,"byteLength":288,"target":34962,"byteStride":12},{"buffer":0,"byteOffset":3648,"byteLength":288,"target":34962,"byteStride":12},{"buffer":0,"byteOffset":3936,"byteLength":192,"target":34962,"byteStride":8},{"buffer":0,"byteOffset":4128,"byteLength":72,"target":34963},{"buffer":0,"byteOffset":4200,"byteLength":624,"target":34962,"byteStride":12},{"buffer":0,"byteOffset":4824,"byteLength":624,"target":34962,"byteStride":12},{"buffer":0,"byteOffset":5448,"byteLength":416,"target":34962,"byteStride":8},{"buffer":0,"byteOffset":5864,"byteLength":144,"target":34963},{"buffer":0,"byteOffset":6008,"byteLength":288,"target":34962,"byteStride":12},{"buffer":0,"byteOffset":6296,"byteLength":288,"target":34962,"byteStride":12},{"buffer":0,"byteOffset":6584,"byteLength":192,"target":34962,"byteStride":8},{"buffer":0,"byteOffset":6776,"byteLength":72,"target":34963},{"buffer":0,"byteOffset":6848,"byteLength":624,"target":34962,"byteStride":12},{"buffer":0,"byteOffset":7472,"byteLength":624,"target":34962,"byteStride":12},{"buffer":0,"byteOffset":8096,"byteLength":416,"target":34962,"byteStride":8},{"buffer":0,"byteOffset":8512,"byteLength":144,"target":34963},{"buffer":0,"byteOffset":8656,"byteLength":288,"target":34962,"byteStride":12},{"buffer":0,"byteOffset":8944,"byteLength":288,"target":34962,"byteStride":12},{"buffer":0,"byteOffset":9232,"byteLength":192,"target":34962,"byteStride":8},{"buffer":0,"byteOffset":9424,"byteLength":72,"target":34963},{"buffer":0,"byteOffset":9496,"byteLength":288,"target":34962,"byteStride":12},{"buffer":0,"byteOffset":9784,"byteLength":288,"target":34962,"byteStride":12},{"buffer":0,"byteOffset":10072,"byteLength":192,"target":34962,"byteStride":8},{"buffer":0,"byteOffset":10264,"byteLength":72,"target":34963}],"buffers":[{"byteLength":10336,"uri":"data:application/octet-stream;base64,"}],"accessors":[{"bufferView":0,"componentType":5126,"count":24,"max":[-0.875,1,0.65625],"min":[-1.5,0.375,0.625],"type":"VEC3"},{"bufferView":1,"componentType":5126,"count":24,"max":[1,1,1],"min":[-1,-1,-1],"type":"VEC3"},{"bufferView":2,"componentType":5126,"count":24,"max":[0.26171875,0.24609375],"min":[0.046875,0.0859375],"type":"VEC2"},{"bufferView":3,"componentType":5123,"count":36,"max":[23],"min":[0],"type":"SCALAR"},{"bufferView":4,"componentType":5126,"count":24,"max":[-1.0625,1,0.65625],"min":[-1.5625,0.25,0.625],"type":"VEC3"},{"bufferView":5,"componentType":5126,"count":24,"max":[1,1,1],"min":[-1,-1,-1],"type":"VEC3"},{"bufferView":6,"componentType":5126,"count":24,"max":[0.42578125,0.25],"min":[0.12109375,0.0234375],"type":"VEC2"},{"bufferView":7,"componentType":5123,"count":36,"max":[23],"min":[0],"type":"SCALAR"},{"bufferView":8,"componentType":5126,"count":24,"max":[-0.875,1,0.65625],"min":[-1.5,0.375,0.625],"type":"VEC3"},{"bufferView":9,"componentType":5126,"count":24,"max":[1,1,1],"min":[-1,-1,-1],"type":"VEC3"},{"bufferView":10,"componentType":5126,"count":24,"max":[0.26953125,0.33203125],"min":[0,0.19921875],"type":"VEC2"},{"bufferView":11,"componentType":5123,"count":36,"max":[23],"min":[0],"type":"SCALAR"},{"bufferView":12,"componentType":5126,"count":24,"max":[1.5,0.9375,0.625],"min":[-1.5,0,-0.9375],"type":"VEC3"},{"bufferView":13,"componentType":5126,"count":24,"max":[1,1,1],"min":[-1,-1,-1],"type":"VEC3"},{"bufferView":14,"componentType":5126,"count":24,"max":[0.40625,0.3671875],"min":[0,0],"type":"VEC2"},{"bufferView":15,"componentType":5123,"count":36,"max":[23],"min":[0],"type":"SCALAR"},{"bufferView":16,"componentType":5126,"count":24,"max":[0.0625,0.125,0.0625],"min":[-0.0625,0,-1.625],"type":"VEC3"},{"bufferView":17,"componentType":5126,"count":24,"max":[1,1,1],"min":[-1,-1,-1],"type":"VEC3"},{"bufferView":18,"componentType":5126,"count":24,"max":[0.53125,0.38671875],"min":[0,0.0234375],"type":"VEC2"},{"bufferView":19,"componentType":5123,"count":36,"max":[23],"min":[0],"type":"SCALAR"},{"bufferView":20,"componentType":5126,"count":52,"max":[0.3125,0.6875,0.75],"min":[-0.1875,-0.1875,-0.75],"type":"VEC3"},{"bufferView":21,"componentType":5126,"count":52,"max":[1,1,0.7592566013336182],"min":[-1,-1,-0.7592566013336182],"type":"VEC3"},{"bufferView":22,"componentType":5126,"count":52,"max":[0.4140625,0.37890625],"min":[0,0],"type":"VEC2"},{"bufferView":23,"componentType":5123,"count":72,"max":[51],"min":[0],"type":"SCALAR"},{"bufferView":24,"componentType":5126,"count":24,"max":[0.1875,0.125,0],"min":[0.0625,0,-1.625],"type":"VEC3"},{"bufferView":25,"componentType":5126,"count":24,"max":[1,1,1],"min":[-1,-1,-1],"type":"VEC3"},{"bufferView":26,"componentType":5126,"count":24,"max":[0.296875,0.3515625],"min":[0.046875,0.234375],"type":"VEC2"},{"bufferView":27,"componentType":5123,"count":36,"max":[23],"min":[0],"type":"SCALAR"},{"bufferView":28,"componentType":5126,"count":52,"max":[0.3125,0.6875,0.75],"min":[-0.1875,-0.1875,-0.75],"type":"VEC3"},{"bufferView":29,"componentType":5126,"count":52,"max":[1,1,0.7592566013336182],"min":[-1,-1,-0.7592566013336182],"type":"VEC3"},{"bufferView":30,"componentType":5126,"count":52,"max":[0.4140625,0.37890625],"min":[0,0],"type":"VEC2"},{"bufferView":31,"componentType":5123,"count":72,"max":[51],"min":[0],"type":"SCALAR"},{"bufferView":32,"componentType":5126,"count":24,"max":[1.625,1.25,0.012500000186264515],"min":[-1.625,-0.125,-0.125],"type":"VEC3"},{"bufferView":33,"componentType":5126,"count":24,"max":[1,1,1],"min":[-1,-1,-1],"type":"VEC3"},{"bufferView":34,"componentType":5126,"count":24,"max":[0.59765625,0.484375],"min":[0.19140625,0],"type":"VEC2"},{"bufferView":35,"componentType":5123,"count":36,"max":[23],"min":[0],"type":"SCALAR"},{"bufferView":36,"componentType":5126,"count":24,"max":[1.631250023841858,1.1875,-0.20624999701976776],"min":[-1.625,-0.1875,-0.34375],"type":"VEC3"},{"bufferView":37,"componentType":5126,"count":24,"max":[1,1,1],"min":[-1,-1,-1],"type":"VEC3"},{"bufferView":38,"componentType":5126,"count":24,"max":[0.796875,0.484375],"min":[0.1875,0.0078125],"type":"VEC2"},{"bufferView":39,"componentType":5123,"count":36,"max":[23],"min":[0],"type":"SCALAR"}],"materials":[{"pbrMetallicRoughness":{"metallicFactor":0,"roughnessFactor":1,"baseColorTexture":{"index":0}},"alphaMode":"MASK","alphaCutoff":0.05,"doubleSided":true}],"textures":[{"sampler":0,"source":0,"name":"House"}],"samplers":[{"magFilter":9728,"minFilter":9728,"wrapS":33071,"wrapT":33071}],"images":[{"mimeType":"image/png","uri":"data:image/png;base64,"}],"meshes":[{"primitives":[{"mode":4,"attributes":{"POSITION":0,"NORMAL":1,"TEXCOORD_0":2},"indices":3,"material":0}]},{"primitives":[{"mode":4,"attributes":{"POSITION":4,"NORMAL":5,"TEXCOORD_0":6},"indices":7,"material":0}]},{"primitives":[{"mode":4,"attributes":{"POSITION":8,"NORMAL":9,"TEXCOORD_0":10},"indices":11,"material":0}]},{"primitives":[{"mode":4,"attributes":{"POSITION":12,"NORMAL":13,"TEXCOORD_0":14},"indices":15,"material":0}]},{"primitives":[{"mode":4,"attributes":{"POSITION":16,"NORMAL":17,"TEXCOORD_0":18},"indices":19,"material":0}]},{"primitives":[{"mode":4,"attributes":{"POSITION":20,"NORMAL":21,"TEXCOORD_0":22},"indices":23,"material":0}]},{"primitives":[{"mode":4,"attributes":{"POSITION":24,"NORMAL":25,"TEXCOORD_0":26},"indices":27,"material":0}]},{"primitives":[{"mode":4,"attributes":{"POSITION":28,"NORMAL":29,"TEXCOORD_0":30},"indices":31,"material":0}]},{"primitives":[{"mode":4,"attributes":{"POSITION":32,"NORMAL":33,"TEXCOORD_0":34},"indices":35,"material":0}]},{"primitives":[{"mode":4,"attributes":{"POSITION":36,"NORMAL":37,"TEXCOORD_0":38},"indices":39,"material":0}]}]}